<svg width="121" height="30" viewBox="0 0 121 30" fill="none" xmlns="http://www.w3.org/2000/svg">
<g opacity="0.6">
<path d="M21.8589 23H14.1411C10.2822 23 9 21.0047 9 19V11C9 7.99762 10.2822 7 14.1411 7H21.8589C25.7178 7 27 7.99762 27 11V19C27 22.0024 25.7056 23 21.8589 23Z" stroke="white" stroke-width="1.5" stroke-linecap="round" stroke-linejoin="round"/>
<path d="M29.6426 20.5003L27 18.3979V11.5946L29.6426 9.49222C30.9354 8.46797 32 9.0933 32 10.8938V19.1095C32 20.91 30.9354 21.5353 29.6426 20.5003Z" stroke="white" stroke-width="1.5" stroke-linecap="round" stroke-linejoin="round"/>
<path d="M21.5 14C22.3284 14 23 13.3284 23 12.5C23 11.6716 22.3284 11 21.5 11C20.6716 11 20 11.6716 20 12.5C20 13.3284 20.6716 14 21.5 14Z" stroke="white" stroke-width="1.5" stroke-linecap="round" stroke-linejoin="round"/>
</g>
<path d="M45.2891 12.3438H43.1875C43.2969 11.4948 43.6016 10.8125 44.1016 10.2969C44.7995 9.57812 45.6771 9.21875 46.7344 9.21875C47.6771 9.21875 48.4661 9.51823 49.1016 10.1172C49.7422 10.7161 50.0625 11.4271 50.0625 12.25C50.0625 12.7604 49.9219 13.2266 49.6406 13.6484C49.3646 14.0703 48.9609 14.4115 48.4297 14.6719C49.1276 14.8802 49.6719 15.2448 50.0625 15.7656C50.4583 16.2812 50.6562 16.8906 50.6562 17.5938C50.6562 18.625 50.276 19.5 49.5156 20.2188C48.7552 20.9323 47.7865 21.2891 46.6094 21.2891C45.4948 21.2891 44.5859 20.9531 43.8828 20.2812C43.1797 19.6042 42.7943 18.6849 42.7266 17.5234H44.8906C44.9844 18.1172 45.1901 18.5599 45.5078 18.8516C45.8307 19.138 46.237 19.2812 46.7266 19.2812C47.237 19.2812 47.6589 19.1172 47.9922 18.7891C48.3307 18.4609 48.5 18.0599 48.5 17.5859C48.5 17.0651 48.2734 16.625 47.8203 16.2656C47.3672 15.9062 46.7135 15.7214 45.8594 15.7109V13.8359C46.3854 13.7943 46.776 13.7135 47.0312 13.5938C47.2917 13.4688 47.4922 13.2995 47.6328 13.0859C47.7786 12.8724 47.8516 12.6458 47.8516 12.4062C47.8516 12.0938 47.7422 11.8359 47.5234 11.6328C47.3047 11.4245 47.0182 11.3203 46.6641 11.3203C46.3516 11.3203 46.0677 11.4167 45.8125 11.6094C45.5573 11.7969 45.3828 12.0417 45.2891 12.3438ZM55.8594 9.21875L57.7188 10.1484L55.7109 14.0547C56.6849 14.0547 57.513 14.4036 58.1953 15.1016C58.8776 15.7995 59.2188 16.6667 59.2188 17.7031C59.2188 18.7031 58.8672 19.5521 58.1641 20.25C57.4661 20.9427 56.6224 21.2891 55.6328 21.2891C54.5964 21.2891 53.7318 20.9297 53.0391 20.2109C52.3516 19.487 52.0078 18.6589 52.0078 17.7266C52.0078 17.3724 52.0599 17.0156 52.1641 16.6562C52.2734 16.2969 52.5208 15.7448 52.9062 15L55.8594 9.21875ZM55.5859 16.125C55.1797 16.125 54.8385 16.2734 54.5625 16.5703C54.2865 16.862 54.1484 17.2292 54.1484 17.6719C54.1484 18.1146 54.2917 18.487 54.5781 18.7891C54.8698 19.0911 55.2083 19.2422 55.5938 19.2422C56 19.2422 56.349 19.0938 56.6406 18.7969C56.9323 18.5 57.0781 18.125 57.0781 17.6719C57.0781 17.2292 56.9349 16.862 56.6484 16.5703C56.3672 16.2734 56.013 16.125 55.5859 16.125ZM64.6328 9.21875C65.4714 9.21875 66.1927 9.42448 66.7969 9.83594C67.4062 10.2474 67.875 10.8776 68.2031 11.7266C68.5365 12.5703 68.7031 13.7474 68.7031 15.2578C68.7031 16.7839 68.5339 17.9714 68.1953 18.8203C67.862 19.6693 67.4115 20.2943 66.8438 20.6953C66.276 21.0911 65.5599 21.2891 64.6953 21.2891C63.8307 21.2891 63.1042 21.0885 62.5156 20.6875C61.9271 20.2865 61.4661 19.6771 61.1328 18.8594C60.7995 18.0417 60.6328 16.8776 60.6328 15.3672C60.6328 13.2578 60.9583 11.7292 61.6094 10.7812C62.3333 9.73958 63.3411 9.21875 64.6328 9.21875ZM64.6875 11.2969C64.3177 11.2969 63.9896 11.4167 63.7031 11.6562C63.4167 11.8906 63.1979 12.2969 63.0469 12.875C62.8958 13.4531 62.8203 14.2995 62.8203 15.4141C62.8203 16.8672 62.9922 17.8724 63.3359 18.4297C63.6849 18.9818 64.1354 19.2578 64.6875 19.2578C65.2188 19.2578 65.6406 18.9948 65.9531 18.4688C66.3333 17.8333 66.5234 16.7708 66.5234 15.2812C66.5234 13.7708 66.3516 12.7292 66.0078 12.1562C65.6693 11.5833 65.2292 11.2969 64.6875 11.2969ZM75.0547 11.9062C75.0547 12.6615 74.7917 13.2995 74.2656 13.8203C73.7396 14.3359 73.1016 14.5938 72.3516 14.5938C71.6016 14.5938 70.9661 14.3333 70.4453 13.8125C69.9245 13.2917 69.6641 12.6484 69.6641 11.8828C69.6641 11.1484 69.9297 10.5208 70.4609 10C70.9974 9.47917 71.6354 9.21875 72.375 9.21875C73.1146 9.21875 73.7448 9.47917 74.2656 10C74.7917 10.5208 75.0547 11.1562 75.0547 11.9062ZM74.125 11.9219C74.125 11.4062 73.9557 10.974 73.6172 10.625C73.2786 10.276 72.8672 10.1016 72.3828 10.1016C71.888 10.1016 71.4661 10.2786 71.1172 10.6328C70.7682 10.9818 70.5938 11.4062 70.5938 11.9062C70.5938 12.3958 70.7682 12.8203 71.1172 13.1797C71.4714 13.5391 71.8906 13.7188 72.375 13.7188C72.8542 13.7188 73.2656 13.5443 73.6094 13.1953C73.9531 12.8411 74.125 12.4167 74.125 11.9219ZM80.2266 9.50781H86.5781V11.6641H84.4844V21H82.2656V11.6641H80.2266V9.50781ZM91.8359 12.2812C92.638 12.2812 93.3906 12.4818 94.0938 12.8828C94.8021 13.2839 95.3542 13.8281 95.75 14.5156C96.1458 15.2031 96.3438 15.9453 96.3438 16.7422C96.3438 17.5443 96.1432 18.2943 95.7422 18.9922C95.3464 19.6901 94.8047 20.237 94.1172 20.6328C93.4297 21.0234 92.6719 21.2188 91.8438 21.2188C90.625 21.2188 89.5833 20.7865 88.7188 19.9219C87.8594 19.0521 87.4297 17.9974 87.4297 16.7578C87.4297 15.4297 87.9167 14.3229 88.8906 13.4375C89.7448 12.6667 90.7266 12.2812 91.8359 12.2812ZM91.8672 14.2891C91.2057 14.2891 90.6536 14.5208 90.2109 14.9844C89.7734 15.4427 89.5547 16.0312 89.5547 16.75C89.5547 17.4896 89.7708 18.0885 90.2031 18.5469C90.6406 19.0052 91.1927 19.2344 91.8594 19.2344C92.526 19.2344 93.0807 19.0026 93.5234 18.5391C93.9661 18.0755 94.1875 17.4792 94.1875 16.75C94.1875 16.0208 93.9688 15.4297 93.5312 14.9766C93.099 14.5182 92.5443 14.2891 91.8672 14.2891ZM98.0859 12.5H100.242V16.5938C100.242 17.3906 100.297 17.9453 100.406 18.2578C100.516 18.5651 100.69 18.8047 100.93 18.9766C101.174 19.1484 101.474 19.2344 101.828 19.2344C102.182 19.2344 102.482 19.151 102.727 18.9844C102.977 18.8125 103.161 18.5625 103.281 18.2344C103.37 17.9896 103.414 17.4661 103.414 16.6641V12.5H105.555V16.1016C105.555 17.5859 105.438 18.6016 105.203 19.1484C104.917 19.8151 104.495 20.3281 103.938 20.6875C103.38 21.0417 102.672 21.2188 101.812 21.2188C100.88 21.2188 100.125 21.0104 99.5469 20.5938C98.974 20.1771 98.5703 19.5964 98.3359 18.8516C98.1693 18.3359 98.0859 17.3984 98.0859 16.0391V12.5ZM107.203 12.5H109.031V13.5703C109.229 13.1484 109.492 12.8281 109.82 12.6094C110.148 12.3906 110.508 12.2812 110.898 12.2812C111.174 12.2812 111.464 12.3542 111.766 12.5L111.102 14.3359C110.852 14.2109 110.646 14.1484 110.484 14.1484C110.156 14.1484 109.878 14.3516 109.648 14.7578C109.424 15.1641 109.312 15.9609 109.312 17.1484L109.32 17.5625V21H107.203V12.5Z" fill="white"/>
</svg>
