<svg width="720" height="312" viewBox="0 0 720 312" fill="none" xmlns="http://www.w3.org/2000/svg">
<path d="M257.932 0V179.876H306.536C298.435 175.015 290.335 170.153 290.335 157.189C290.335 121.538 408.603 137.743 408.603 110.194C408.603 87.5074 308.156 28.0888 257.932 0Z" fill="url(#paint0_linear_750_1229)"/>
<path d="M462.068 179.876V0L369.721 61.5793C386.462 74.0031 419.944 98.8509 419.944 116.676C419.944 137.743 353.52 145.846 353.52 163.671C353.52 174.042 376.977 179.876 389.641 179.876H462.068Z" fill="#EE3432"/>
<path d="M24.7336 281.278H68.4312C68.133 283.976 67.7603 286.14 67.313 287.771C66.8956 289.402 66.2694 291.062 65.4345 292.752C64.0331 295.599 62.2441 298.208 60.0674 300.58C57.9205 302.952 55.4904 304.983 52.777 306.673C50.0934 308.333 47.1862 309.623 44.0554 310.542C40.9245 311.431 37.7192 311.876 34.4392 311.876C29.8473 311.876 25.4492 311.016 21.245 309.297C17.0705 307.577 13.3732 305.175 10.1529 302.092C6.96239 299.008 4.47263 295.465 2.68358 291.462C0.894525 287.43 0 283.22 0 278.832C0 272.843 1.5356 267.328 4.60681 262.287C7.67801 257.217 11.8525 253.214 17.1302 250.279C22.4079 247.344 28.1477 245.876 34.3498 245.876C41.4762 245.876 47.7975 247.655 53.3137 251.213C56.534 253.318 59.4114 255.972 61.9459 259.174C62.9299 260.479 63.8095 262.05 64.5847 263.888H57.2496C55.6395 261.487 53.9697 259.574 52.2403 258.151C49.7952 256.194 47.0222 254.682 43.9212 253.615C40.85 252.518 37.6595 251.969 34.3498 251.969C29.3106 251.969 24.6442 253.17 20.3505 255.572C16.0567 257.973 12.6575 261.235 10.1529 265.356C7.67801 269.477 6.44058 273.969 6.44058 278.832C6.44058 283.694 7.69292 288.201 10.1976 292.352C12.7321 296.473 16.1611 299.75 20.4846 302.181C24.7784 304.582 29.4597 305.783 34.5287 305.783C38.5839 305.783 42.4751 304.923 46.2022 303.204C49.9294 301.484 53.0901 299.127 55.6842 296.132C56.8769 294.798 57.8013 293.553 58.4572 292.396C59.1132 291.21 59.8736 289.446 60.7383 287.104H24.7336V281.278Z" fill="white"/>
<path d="M125.536 263.444V310.764H119.274V301.869C118.111 303.856 116.799 305.531 115.338 306.895C111.432 310.216 106.617 311.876 100.892 311.876C97.0751 311.876 93.1988 310.942 89.2629 309.074C85.327 307.177 82.2111 304.775 79.9151 301.869C78.4839 300.002 77.3359 297.748 76.4712 295.109C75.6363 292.441 75.2189 289.772 75.2189 287.104C75.2189 282.657 76.3519 278.535 78.618 274.74C80.914 270.945 84.0299 267.95 87.9658 265.756C91.8719 263.533 96.1209 262.421 100.713 262.421C103.575 262.421 106.274 262.865 108.808 263.755C111.373 264.644 113.579 265.934 115.428 267.624C116.859 268.869 118.141 270.485 119.274 272.472V263.399L125.536 263.444ZM101.071 268.514C97.4925 268.514 94.2126 269.359 91.2309 271.049C88.2491 272.709 85.9084 274.977 84.2088 277.853C82.5092 280.729 81.6594 283.872 81.6594 287.282C81.6594 290.603 82.5241 293.686 84.2536 296.533C85.983 299.349 88.3087 301.603 91.2309 303.293C94.1828 304.953 97.3733 305.783 100.802 305.783C104.082 305.783 107.139 304.953 109.971 303.293C112.834 301.603 115.1 299.349 116.77 296.533C118.439 293.686 119.274 290.603 119.274 287.282C119.274 283.961 118.454 280.848 116.814 277.942C115.174 275.037 112.953 272.739 110.15 271.049C107.347 269.359 104.321 268.514 101.071 268.514Z" fill="white"/>
<path d="M176.29 296.933H183.446C182.283 299.127 181.299 300.787 180.494 301.914C179.719 303.011 178.749 304.093 177.587 305.161C172.786 309.638 166.986 311.876 160.188 311.876C155.417 311.876 151.049 310.794 147.083 308.63C143.118 306.436 139.987 303.456 137.691 299.69C135.395 295.895 134.247 291.729 134.247 287.193C134.247 282.686 135.395 278.535 137.691 274.74C139.987 270.945 143.118 267.95 147.083 265.756C151.049 263.533 155.358 262.421 160.009 262.421C167.285 262.421 173.472 265 178.571 270.159C180.36 271.998 182.014 274.547 183.535 277.809H176.29C174.888 275.793 173.487 274.192 172.085 273.006C168.537 270.011 164.482 268.514 159.92 268.514C156.401 268.514 153.166 269.344 150.214 271.004C147.262 272.635 144.936 274.874 143.237 277.72C141.537 280.566 140.687 283.665 140.687 287.015C140.687 290.514 141.522 293.701 143.192 296.577C144.862 299.423 147.173 301.677 150.125 303.337C153.047 304.968 156.282 305.783 159.83 305.783C163.021 305.783 165.973 305.116 168.686 303.782C170.207 303.011 171.489 302.166 172.532 301.247C173.576 300.298 174.828 298.86 176.29 296.933Z" fill="white"/>
<path d="M191.978 310.809V246.855H198.374V270.248C200.103 267.52 202.205 265.534 204.68 264.289C207.185 263.043 210.315 262.421 214.072 262.421C220.901 262.421 226.119 264.674 229.727 269.181C231.158 270.96 232.231 272.961 232.947 275.185C233.722 277.794 234.11 281.352 234.11 285.859V310.809H227.58V285.859C227.58 283.754 227.431 281.678 227.133 279.632C226.566 276.134 225.06 273.406 222.615 271.449C220.17 269.492 217.069 268.514 213.312 268.514C210.807 268.514 208.407 269.062 206.111 270.159C203.905 271.197 202.16 272.605 200.878 274.384C199.894 275.659 199.223 277.097 198.866 278.698C198.538 280.299 198.374 282.686 198.374 285.859V310.809H191.978Z" fill="white"/>
<path d="M286.518 263.444V310.764H280.48V303.426C279.288 305.294 278.125 306.717 276.992 307.696C274.069 310.423 269.895 311.787 264.468 311.787C257.58 311.787 252.347 309.578 248.769 305.161C247.338 303.352 246.265 301.351 245.549 299.157C244.744 296.547 244.341 292.96 244.341 288.394V263.444H250.871V288.394C250.871 290.44 251.035 292.53 251.363 294.665C251.751 296.918 252.586 298.875 253.868 300.535C255.15 302.196 256.775 303.456 258.743 304.316C260.741 305.235 262.948 305.694 265.363 305.694C267.838 305.694 270.163 305.175 272.34 304.138C274.547 303.1 276.306 301.677 277.618 299.868C278.602 298.593 279.258 297.17 279.586 295.599C279.914 293.998 280.078 291.596 280.078 288.394V263.444H286.518Z" fill="white"/>
<path d="M339.016 263.444V310.764H332.978V303.426C331.785 305.294 330.623 306.717 329.49 307.696C326.567 310.423 322.393 311.787 316.966 311.787C310.078 311.787 304.845 309.578 301.267 305.161C299.836 303.352 298.763 301.351 298.047 299.157C297.242 296.547 296.839 292.96 296.839 288.394V263.444H303.369V288.394C303.369 290.44 303.533 292.53 303.861 294.665C304.249 296.918 305.084 298.875 306.366 300.535C307.648 302.196 309.273 303.456 311.241 304.316C313.239 305.235 315.445 305.694 317.861 305.694C320.336 305.694 322.661 305.175 324.838 304.138C327.044 303.1 328.804 301.677 330.116 299.868C331.1 298.593 331.756 297.17 332.084 295.599C332.412 293.998 332.576 291.596 332.576 288.394V263.444H339.016Z" fill="white"/>
<path d="M349.561 310.809V263.444H355.599V270.248C356.493 268.588 357.388 267.343 358.283 266.512C359.386 265.415 360.698 264.541 362.218 263.888C363.918 263.147 366.333 262.658 369.464 262.421V268.736C366.721 269.033 364.485 269.67 362.755 270.648C360.221 272.25 358.357 274.221 357.164 276.564C356.359 278.076 355.957 280.655 355.957 284.302V310.809H349.561Z" fill="white"/>
<path d="M380.814 310.809V269.27H370.84V263.444H380.814V246.855H387.21V263.444H398.302V269.27H387.21V310.809H380.814Z" fill="white"/>
<path d="M429.141 310.809V246.855H444.483C449.224 246.855 452.936 247.092 455.619 247.566C458.333 248.011 460.718 248.812 462.776 249.968C465.847 251.688 468.277 254.119 470.066 257.262C471.885 260.375 472.794 263.77 472.794 267.446C472.794 272.902 470.961 277.453 467.293 281.1C465.683 282.582 464.058 283.709 462.418 284.48C461.136 285.103 459.853 285.533 458.571 285.77C457.319 286.007 455.515 286.155 453.159 286.214L471.989 310.809H463.894L442.067 281.812H443.991C447.39 281.812 450.058 281.723 451.997 281.545C453.875 281.456 455.888 280.981 458.035 280.122C460.539 278.965 462.552 277.231 464.073 274.918C465.593 272.605 466.354 270.085 466.354 267.357C466.354 265.045 465.817 262.851 464.744 260.775C463.67 258.7 462.194 257.01 460.316 255.705C458.735 254.549 456.916 253.763 454.859 253.348C452.802 252.903 449.79 252.681 445.824 252.681H435.582V310.809H429.141Z" fill="white"/>
<path d="M480.476 310.809V263.444H486.872V310.809H480.476ZM480.476 257.795V246.855H486.872V257.795H480.476Z" fill="white"/>
<path d="M512.669 310.809L492.676 263.444H499.564L516.068 302.67L532.572 263.444H539.504L519.378 310.809H512.669Z" fill="white"/>
<path d="M592.763 289.016H549.647C549.974 291.566 550.481 293.568 551.167 295.02C552.092 297.096 553.433 298.964 555.193 300.624C556.952 302.255 558.964 303.53 561.231 304.449C563.497 305.338 565.852 305.783 568.297 305.783C573.486 305.783 577.943 304.019 581.671 300.491C583.072 299.127 584.265 297.437 585.249 295.421H592.047C590.854 298.148 589.781 300.194 588.827 301.558C587.873 302.922 586.531 304.33 584.801 305.783C582.565 307.71 579.971 309.208 577.019 310.275C574.067 311.343 571.1 311.876 568.118 311.876C563.616 311.876 559.471 310.794 555.685 308.63C551.898 306.436 548.886 303.441 546.65 299.646C544.443 295.851 543.34 291.7 543.34 287.193C543.34 282.716 544.443 278.58 546.65 274.785C548.856 270.989 551.853 267.98 555.64 265.756C559.456 263.533 563.586 262.421 568.029 262.421C571.786 262.421 575.349 263.221 578.719 264.822C582.088 266.423 584.965 268.692 587.351 271.627C589.617 274.414 591.182 277.601 592.047 281.189C592.345 282.523 592.584 285.132 592.763 289.016ZM549.87 283.19H586.188C585.711 280.492 584.593 278.016 582.833 275.763C581.104 273.51 578.927 271.745 576.303 270.471C573.709 269.166 570.981 268.514 568.118 268.514C565.196 268.514 562.468 269.122 559.934 270.337C557.429 271.523 555.297 273.243 553.538 275.496C551.778 277.72 550.556 280.285 549.87 283.19Z" fill="white"/>
<path d="M601.295 310.809V263.444H607.333V270.248C608.227 268.588 609.122 267.343 610.016 266.512C611.12 265.415 612.432 264.541 613.952 263.888C615.652 263.147 618.067 262.658 621.198 262.421V268.736C618.455 269.033 616.218 269.67 614.489 270.648C611.954 272.25 610.091 274.221 608.898 276.564C608.093 278.076 607.691 280.655 607.691 284.302V310.809H601.295Z" fill="white"/>
<path d="M627.046 310.809V246.855H633.442V270.248C635.172 267.52 637.274 265.534 639.749 264.289C642.253 263.043 645.384 262.421 649.141 262.421C655.969 262.421 661.187 264.674 664.795 269.181C666.227 270.96 667.3 272.961 668.016 275.185C668.791 277.794 669.178 281.352 669.178 285.859V310.809H662.648V285.859C662.648 283.754 662.499 281.678 662.201 279.632C661.635 276.134 660.129 273.406 657.684 271.449C655.239 269.492 652.138 268.514 648.381 268.514C645.876 268.514 643.476 269.062 641.18 270.159C638.973 271.197 637.229 272.605 635.947 274.384C634.963 275.659 634.292 277.097 633.934 278.698C633.606 280.299 633.442 282.686 633.442 285.859V310.809H627.046Z" fill="white"/>
<path d="M679.634 310.809V263.444H686.029V310.809H679.634ZM679.634 257.795V246.855H686.029V257.795H679.634Z" fill="white"/>
<path d="M696.619 310.809V246.855H703.015V310.809H696.619Z" fill="white"/>
<path d="M713.604 310.809V246.855H720V310.809H713.604Z" fill="white"/>
<defs>
<linearGradient id="paint0_linear_750_1229" x1="333.268" y1="0" x2="333.268" y2="179.876" gradientUnits="userSpaceOnUse">
<stop stop-color="white" stop-opacity="0.58"/>
<stop offset="1" stop-color="white" stop-opacity="0.96"/>
</linearGradient>
</defs>
</svg>
