<svg width="100" height="58" viewBox="0 0 100 58" fill="none" xmlns="http://www.w3.org/2000/svg">
<path d="M3.33728 53.7003H9.49077C9.46596 53.9149 9.43908 54.1072 9.41013 54.2772C9.38118 54.4432 9.35017 54.5869 9.31709 54.7084C9.28814 54.8218 9.25092 54.9371 9.20543 55.0545C9.16407 55.1679 9.11445 55.2813 9.05655 55.3946C8.86219 55.7873 8.61407 56.1436 8.31218 56.4634C8.01443 56.7833 7.67946 57.0585 7.30727 57.2893C6.93509 57.516 6.53188 57.6921 6.09767 57.8176C5.66758 57.9391 5.22303 57.9998 4.764 57.9998C4.29669 58.0039 3.83973 57.9371 3.39311 57.7994C2.94648 57.6577 2.52881 57.4634 2.14008 57.2164C1.75548 56.9654 1.41018 56.6699 1.10416 56.3298C0.80227 55.9897 0.558281 55.6193 0.372187 55.2185C0.260531 54.9513 0.169552 54.6679 0.0992499 54.3683C0.0330833 54.0687 0 53.7772 0 53.4938C0 53.093 0.0558281 52.7024 0.167484 52.3218C0.27914 51.9372 0.436286 51.5748 0.638921 51.2348C0.853963 50.8907 1.10416 50.583 1.3895 50.3117C1.67898 50.0364 2.00568 49.7996 2.36959 49.6012C3.10156 49.2004 3.89556 49 4.75159 49C5.74822 49 6.62493 49.2409 7.38171 49.7227C7.82007 50.0061 8.21707 50.3684 8.57271 50.8097C8.71332 50.9838 8.86012 51.257 9.01313 51.6295H7.77871C7.53886 51.2773 7.30934 51.0121 7.09017 50.834V50.84C6.7676 50.585 6.40575 50.3886 6.00462 50.251C5.60762 50.1133 5.18994 50.0445 4.75159 50.0445C4.08992 50.0445 3.48202 50.1984 2.92787 50.506C2.64253 50.6599 2.3882 50.8421 2.16489 51.0526C1.94571 51.2591 1.75548 51.4959 1.5942 51.7631C1.27164 52.2935 1.11036 52.8704 1.11036 53.4938C1.11036 53.7934 1.15378 54.093 1.24062 54.3926C1.32747 54.6922 1.44739 54.9715 1.6004 55.2306C1.76582 55.4938 1.96019 55.7327 2.1835 55.9472C2.40681 56.1578 2.66114 56.3399 2.94648 56.4938C3.50063 56.8015 4.1106 56.9553 4.7764 56.9553C5.0452 56.9553 5.30573 56.929 5.55799 56.8764C5.81026 56.8237 6.05631 56.7407 6.29617 56.6274C6.54429 56.514 6.77174 56.3824 6.97851 56.2327C7.18528 56.0788 7.37344 55.9067 7.54299 55.7165C7.61743 55.6355 7.68567 55.5525 7.7477 55.4675C7.80973 55.3825 7.86142 55.3055 7.90277 55.2367C7.93586 55.18 7.97308 55.1072 8.01443 55.0181C8.05578 54.929 8.09921 54.8258 8.1447 54.7084H3.33728V53.7003Z" fill="white"/>
<path d="M17.3921 51.3927V57.8541H16.3189V56.9614C16.2652 57.0302 16.2114 57.093 16.1576 57.1496C16.1039 57.2063 16.048 57.261 15.9902 57.3136C15.4484 57.7711 14.7785 57.9998 13.9803 57.9998C13.4469 57.9998 12.9113 57.8723 12.3737 57.6172C11.8361 57.3662 11.404 57.0403 11.0773 56.6395C10.978 56.514 10.8891 56.3723 10.8105 56.2144C10.732 56.0565 10.6637 55.8906 10.6058 55.7165C10.5479 55.5383 10.5025 55.3582 10.4694 55.176C10.4404 54.9898 10.426 54.8056 10.426 54.6234C10.426 54.3197 10.4652 54.0282 10.5438 53.7489C10.6224 53.4655 10.7423 53.1943 10.9036 52.9351C11.0607 52.6801 11.2468 52.4514 11.4619 52.2489C11.6769 52.0425 11.9209 51.8643 12.1938 51.7145C12.7314 51.4109 13.3187 51.2591 13.9555 51.2591C14.3567 51.2591 14.733 51.3198 15.0845 51.4412C15.4401 51.5627 15.7482 51.7388 16.0088 51.9696H16.0026C16.1101 52.0627 16.2155 52.172 16.3189 52.2975V51.3866L17.3921 51.3927ZM14.0052 52.2914C13.6619 52.2874 13.3394 52.3481 13.0375 52.4736C12.7356 52.5991 12.4709 52.7712 12.2435 52.9898C12.016 53.2044 11.8382 53.4554 11.71 53.7428C11.5818 54.0303 11.5218 54.3319 11.5301 54.6477C11.526 54.8541 11.5529 55.0545 11.6108 55.2489C11.6686 55.4432 11.7514 55.6274 11.8589 55.8015C11.9664 55.9756 12.0967 56.1355 12.2497 56.2812C12.4027 56.4229 12.5702 56.5464 12.7521 56.6517C12.9341 56.7529 13.1284 56.8318 13.3352 56.8885C13.542 56.9452 13.7529 56.9715 13.9679 56.9675C14.2781 56.9756 14.5758 56.9169 14.8612 56.7913C15.1507 56.6658 15.405 56.4958 15.6242 56.2812C15.8433 56.0667 16.015 55.8197 16.139 55.5404C16.2672 55.257 16.3272 54.9614 16.3189 54.6537C16.3189 54.2286 16.2155 53.8359 16.0088 53.4756C15.9012 53.2934 15.7772 53.1295 15.6366 52.9837C15.5001 52.838 15.3409 52.7125 15.1589 52.6072C14.977 52.502 14.7909 52.423 14.6007 52.3704C14.4146 52.3177 14.2161 52.2914 14.0052 52.2914Z" fill="white"/>
<path d="M25.5105 55.8015C25.3988 56.0039 25.3016 56.176 25.2189 56.3177C25.1362 56.4594 25.068 56.5687 25.0142 56.6456C24.9563 56.7185 24.8922 56.7954 24.8219 56.8764C24.7516 56.9533 24.6813 57.0241 24.611 57.0889C24.2843 57.3845 23.9183 57.6112 23.513 57.7691C23.1078 57.9229 22.6715 57.9998 22.2042 57.9998C21.5343 57.9998 20.9305 57.8541 20.3929 57.5626C19.847 57.2711 19.4128 56.8622 19.0902 56.3359C18.7718 55.8217 18.6126 55.2549 18.6126 54.6355C18.6126 54.0201 18.7718 53.4534 19.0902 52.9351C19.2474 52.676 19.4355 52.4433 19.6547 52.2368C19.8739 52.0303 20.1199 51.8542 20.3929 51.7084V51.7145C20.9429 51.4109 21.5384 51.2591 22.1794 51.2591C23.1801 51.2591 24.0341 51.6093 24.7413 52.3097C24.9853 52.5607 25.2416 52.9635 25.5105 53.5181H24.2946C24.1954 53.3764 24.0941 53.2509 23.9907 53.1416C23.8914 53.0283 23.7984 52.9331 23.7115 52.8562C23.4882 52.674 23.2463 52.5343 22.9858 52.4372C22.7253 52.34 22.4523 52.2914 22.167 52.2914C21.7245 52.2914 21.3109 52.3967 20.9263 52.6072C20.5459 52.8096 20.2502 53.089 20.0393 53.4453C19.8243 53.8015 19.7167 54.1902 19.7167 54.6112C19.7167 54.8298 19.7436 55.0404 19.7974 55.2428C19.8511 55.4412 19.9297 55.6315 20.0331 55.8136C20.1365 55.9877 20.2626 56.1476 20.4115 56.2934C20.5645 56.4391 20.732 56.5606 20.9139 56.6577C21.2779 56.8642 21.6914 56.9675 22.1546 56.9675C22.3531 56.9675 22.5474 56.9452 22.7377 56.9007C22.9279 56.8561 23.1098 56.7934 23.2835 56.7124C23.3786 56.6679 23.4696 56.6193 23.5565 56.5667C23.6433 56.51 23.7157 56.4533 23.7736 56.3966C23.8356 56.3399 23.91 56.261 23.9969 56.1598C24.0837 56.0586 24.183 55.9391 24.2946 55.8015H25.5105Z" fill="white"/>
<path d="M26.6069 57.8602V49.2125H27.6987V52.0425C27.8972 51.8117 28.1205 51.6356 28.3686 51.5141C28.7201 51.3441 29.1564 51.2591 29.6775 51.2591C30.1613 51.2591 30.5831 51.338 30.9429 51.4959C31.3027 51.6497 31.6108 51.8825 31.8672 52.1943C32.0657 52.4372 32.2145 52.7125 32.3138 53.0202C32.3717 53.2023 32.413 53.4129 32.4378 53.6517C32.4627 53.8906 32.4751 54.1598 32.4751 54.4594V57.8602H31.3647V54.4594C31.3647 54.3299 31.3606 54.1963 31.3523 54.0586C31.344 53.921 31.3296 53.7874 31.3089 53.6578C31.2717 53.4473 31.2034 53.259 31.1042 53.093C31.0049 52.923 30.8809 52.7793 30.732 52.6619C30.5831 52.5445 30.4115 52.4534 30.2171 52.3886C30.0228 52.3238 29.8098 52.2914 29.5782 52.2914C29.2515 52.2914 28.9476 52.3603 28.6664 52.4979C28.5299 52.5627 28.4079 52.6396 28.3004 52.7287C28.1928 52.8137 28.0977 52.9109 28.015 53.0202C27.9571 53.093 27.9054 53.176 27.8599 53.2691C27.8186 53.3582 27.7876 53.4493 27.7669 53.5424C27.7214 53.757 27.6987 54.0627 27.6987 54.4594V57.8602H26.6069Z" fill="white"/>
<path d="M39.7498 51.3927V57.8541H38.7015V57.1375C38.6105 57.2509 38.5196 57.346 38.4286 57.4229H38.4348C38.0254 57.7994 37.4402 57.9877 36.6793 57.9877C35.7157 57.9877 34.9838 57.684 34.4834 57.0768C34.3883 56.9513 34.3014 56.8197 34.2229 56.682C34.1484 56.5444 34.0864 56.3986 34.0368 56.2448C33.9251 55.8804 33.8693 55.3966 33.8693 54.7934V51.3927H34.9796V54.7934C34.9796 54.9189 34.9858 55.0505 34.9982 55.1881C35.0107 55.3258 35.0272 55.4634 35.0479 55.6011C35.0975 55.8723 35.2009 56.1112 35.358 56.3177C35.5152 56.5241 35.7157 56.68 35.9597 56.7853C36.2079 56.8986 36.487 56.9553 36.7971 56.9553C37.1114 56.9553 37.4051 56.8905 37.678 56.761C37.9509 56.6314 38.1722 56.4553 38.3417 56.2327C38.3996 56.1598 38.4492 56.0788 38.4906 55.9897C38.532 55.8966 38.563 55.8055 38.5836 55.7165C38.6043 55.6112 38.6188 55.4817 38.6271 55.3278C38.6395 55.174 38.6457 54.9958 38.6457 54.7934V51.3927H39.7498Z" fill="white"/>
<path d="M47.0308 51.3927V57.8541H45.9825V57.1375C45.8915 57.2509 45.8005 57.346 45.7095 57.4229H45.7157C45.3063 57.7994 44.7212 57.9877 43.9603 57.9877C42.9967 57.9877 42.2647 57.684 41.7644 57.0768C41.6692 56.9513 41.5824 56.8197 41.5038 56.682C41.4294 56.5444 41.3674 56.3986 41.3177 56.2448C41.2061 55.8804 41.1503 55.3966 41.1503 54.7934V51.3927H42.2606V54.7934C42.2606 54.9189 42.2668 55.0505 42.2792 55.1881C42.2916 55.3258 42.3082 55.4634 42.3288 55.6011C42.3785 55.8723 42.4819 56.1112 42.639 56.3177C42.7961 56.5241 42.9967 56.68 43.2407 56.7853C43.4888 56.8986 43.768 56.9553 44.0781 56.9553C44.3924 56.9553 44.686 56.8905 44.959 56.761C45.2319 56.6314 45.4531 56.4553 45.6227 56.2327C45.6806 56.1598 45.7302 56.0788 45.7716 55.9897C45.8129 55.8966 45.8439 55.8055 45.8646 55.7165C45.8853 55.6112 45.8998 55.4817 45.908 55.3278C45.9205 55.174 45.9267 54.9958 45.9267 54.7934V51.3927H47.0308Z" fill="white"/>
<path d="M48.4374 57.8602V51.3927H49.4796V51.9939C49.5085 51.9615 49.5354 51.9331 49.5602 51.9089C49.585 51.8846 49.6098 51.8582 49.6346 51.8299C49.7173 51.7489 49.8042 51.6801 49.8952 51.6234C49.9903 51.5627 50.0916 51.5101 50.1991 51.4655C50.439 51.3603 50.8174 51.2894 51.3343 51.253V52.3097C51.1234 52.3339 50.9373 52.3663 50.776 52.4068C50.6189 52.4473 50.4865 52.4979 50.379 52.5586H50.3852C50.0585 52.7692 49.8228 53.0121 49.6781 53.2874C49.5788 53.4695 49.5292 53.7914 49.5292 54.2529V57.8602H48.4374Z" fill="white"/>
<path d="M52.7409 57.8602V52.3947H51.4072V51.3927H52.7409V49.2125H53.8327V51.3927H55.3152V52.3947H53.8327V57.8602H52.7409Z" fill="white"/>
<path d="M59.4869 57.8602V49.1275H61.6766C62.0075 49.1275 62.299 49.1356 62.5513 49.1518C62.8035 49.168 63.0206 49.1923 63.2026 49.2247C63.3846 49.253 63.5603 49.2955 63.7299 49.3522C63.9035 49.4089 64.0628 49.4777 64.2075 49.5587C64.4184 49.6761 64.6107 49.8218 64.7844 49.9959C64.9622 50.166 65.1111 50.3562 65.231 50.5668C65.3592 50.7813 65.4564 51.0081 65.5226 51.2469C65.5887 51.4817 65.6218 51.7267 65.6218 51.9817C65.6218 52.7469 65.3613 53.3805 64.8402 53.8825C64.7327 53.9797 64.621 54.0687 64.5052 54.1497C64.3895 54.2266 64.2695 54.2934 64.1455 54.3501H64.1517C64.0566 54.3946 63.9656 54.4331 63.8787 54.4655C63.7919 54.4938 63.7009 54.5161 63.6058 54.5323C63.4776 54.5566 63.306 54.5748 63.0909 54.5869C63.2936 54.8501 63.5024 55.1213 63.7175 55.4007C63.9325 55.676 64.1475 55.9533 64.3626 56.2327C64.5818 56.512 64.7968 56.7893 65.0077 57.0646C65.2227 57.3399 65.4316 57.6051 65.6342 57.8602H64.2385L61.1121 53.7732H61.6146C62.0654 53.7732 62.421 53.761 62.6815 53.7368C62.8015 53.7287 62.9255 53.7104 63.0537 53.6821C63.1861 53.6497 63.3225 53.6072 63.4631 53.5546L63.4569 53.5606C63.7712 53.4149 64.0255 53.1983 64.2199 52.9109C64.4143 52.6153 64.5115 52.3016 64.5115 51.9696C64.5115 51.6781 64.4432 51.4048 64.3067 51.1498C64.1703 50.8907 63.9821 50.6801 63.7423 50.5182C63.6471 50.4453 63.5417 50.3866 63.4259 50.3421C63.3101 50.2935 63.1861 50.255 63.0537 50.2267C62.7725 50.166 62.3755 50.1356 61.8627 50.1356H60.5973V57.8602H59.4869Z" fill="white"/>
<path d="M66.5756 57.8602V51.3927H67.6673V57.8602H66.5756ZM66.5756 50.8826V49.2125H67.6673V50.8826H66.5756Z" fill="white"/>
<path d="M71.0404 57.8602L68.2676 51.3927H69.4462L71.5738 56.3723C71.9295 55.5464 72.2851 54.7165 72.6408 53.8825C72.9964 53.0485 73.35 52.2186 73.7015 51.3927H74.8863L72.0949 57.8602H71.0404Z" fill="white"/>
<path d="M76.4542 54.9938C76.4749 55.1274 76.4997 55.2448 76.5286 55.346C76.5576 55.4472 76.5907 55.5383 76.6279 55.6193C76.6858 55.7408 76.7581 55.8622 76.845 55.9837C76.9318 56.1011 77.029 56.2124 77.1365 56.3177C77.3598 56.512 77.6183 56.6699 77.9119 56.7913C78.2055 56.9088 78.5033 56.9675 78.8052 56.9675C79.4668 56.9675 80.0355 56.7468 80.511 56.3055C80.6847 56.1355 80.846 55.9007 80.9949 55.6011H82.1611C82.0535 55.8399 81.9564 56.0444 81.8695 56.2144C81.7827 56.3804 81.7103 56.5059 81.6524 56.5909C81.5945 56.68 81.5139 56.7772 81.4105 56.8824C81.3071 56.9837 81.2016 57.0788 81.0941 57.1679C80.937 57.2974 80.7654 57.4148 80.5793 57.5201C80.3973 57.6213 80.2071 57.7083 80.0086 57.7812C79.8101 57.85 79.6054 57.9027 79.3945 57.9391C79.1877 57.9796 78.983 57.9998 78.7804 57.9998C78.16 57.9998 77.5873 57.8521 77.0621 57.5565C76.7974 57.4067 76.5617 57.2306 76.3549 57.0282C76.1482 56.8217 75.9662 56.5889 75.8091 56.3298C75.503 55.8116 75.35 55.2468 75.35 54.6355C75.35 54.0323 75.503 53.4675 75.8091 52.9412C75.9621 52.6862 76.142 52.4554 76.3487 52.2489C76.5555 52.0425 76.7912 51.8643 77.0559 51.7145C77.5811 51.4109 78.1538 51.2591 78.7742 51.2591C79.2994 51.2591 79.7935 51.3684 80.2567 51.587C80.7199 51.8016 81.1169 52.1093 81.4477 52.5101C81.762 52.8906 81.977 53.3258 82.0928 53.8157C82.1176 53.9169 82.1383 54.0647 82.1549 54.259C82.1714 54.4533 82.1879 54.6983 82.2045 54.9938H76.4542ZM81.0507 53.9918C80.968 53.7044 80.8357 53.4412 80.6537 53.2023C80.4345 52.919 80.1595 52.6963 79.8287 52.5343C79.4978 52.3724 79.1484 52.2914 78.7804 52.2914C78.404 52.2914 78.0567 52.3684 77.7382 52.5222C77.4239 52.672 77.1551 52.8866 76.9318 53.1659C76.7333 53.4169 76.5865 53.6922 76.4914 53.9918H81.0507Z" fill="white"/>
<path d="M83.3506 57.8602V51.3927H84.3927V51.9939C84.4216 51.9615 84.4485 51.9331 84.4733 51.9089C84.4982 51.8846 84.523 51.8582 84.5478 51.8299C84.6305 51.7489 84.7173 51.6801 84.8083 51.6234C84.9034 51.5627 85.0047 51.5101 85.1123 51.4655C85.3521 51.3603 85.7305 51.2894 86.2474 51.253V52.3097C86.0365 52.3339 85.8504 52.3663 85.6892 52.4068C85.532 52.4473 85.3997 52.4979 85.2922 52.5586H85.2984C84.9717 52.7692 84.7359 53.0121 84.5912 53.2874C84.492 53.4695 84.4423 53.7914 84.4423 54.2529V57.8602H83.3506Z" fill="white"/>
<path d="M86.9469 57.8602V49.2125H88.0386V52.0425C88.2371 51.8117 88.4605 51.6356 88.7086 51.5141C89.0601 51.3441 89.4964 51.2591 90.0174 51.2591C90.5013 51.2591 90.9231 51.338 91.2829 51.4959C91.6427 51.6497 91.9507 51.8825 92.2071 52.1943C92.4056 52.4372 92.5545 52.7125 92.6538 53.0202C92.7117 53.2023 92.753 53.4129 92.7778 53.6517C92.8026 53.8906 92.815 54.1598 92.815 54.4594V57.8602H91.7047V54.4594C91.7047 54.3299 91.7006 54.1963 91.6923 54.0586C91.684 53.921 91.6695 53.7874 91.6489 53.6578C91.6116 53.4473 91.5434 53.259 91.4442 53.093C91.3449 52.923 91.2208 52.7793 91.072 52.6619C90.9231 52.5445 90.7515 52.4534 90.5571 52.3886C90.3627 52.3238 90.1498 52.2914 89.9182 52.2914C89.5915 52.2914 89.2875 52.3603 89.0063 52.4979C88.8699 52.5627 88.7479 52.6396 88.6404 52.7287C88.5328 52.8137 88.4377 52.9109 88.355 53.0202C88.2971 53.093 88.2454 53.176 88.1999 53.2691C88.1586 53.3582 88.1276 53.4493 88.1069 53.5424C88.0614 53.757 88.0386 54.0627 88.0386 54.4594V57.8602H86.9469Z" fill="white"/>
<path d="M94.1969 57.8602V51.3927H95.2886V57.8602H94.1969ZM94.1969 50.8826V49.2125H95.2886V50.8826H94.1969Z" fill="white"/>
<path d="M96.5526 57.8602V49.2125H97.6443V57.8602H96.5526Z" fill="white"/>
<path d="M98.9082 57.8602V49.2125H100V57.8602H98.9082Z" fill="white"/>
<path d="M26.7327 0V41.0741H37.7195C35.8884 39.964 34.0572 38.8539 34.0572 35.8936C34.0572 27.7528 60.7919 31.4531 60.7919 25.1625C60.7919 19.982 38.0857 6.41397 26.7327 0Z" fill="url(#paint0_linear_1058_1613)"/>
<path d="M72.8774 41.0741V0L52.0024 14.0614C55.7867 16.8984 63.3554 22.5723 63.3554 26.6427C63.3554 31.4531 48.3401 33.3033 48.3401 37.3737C48.3401 39.742 53.6426 41.0741 56.5054 41.0741H72.8774Z" fill="#EE3432"/>
<defs>
<linearGradient id="paint0_linear_1058_1613" x1="43.7623" y1="0" x2="43.7623" y2="41.0741" gradientUnits="userSpaceOnUse">
<stop stop-color="white" stop-opacity="0.35"/>
<stop offset="1" stop-color="white" stop-opacity="0.6"/>
</linearGradient>
</defs>
</svg>
